solid Exported from Blender-4.4.1
facet normal 0.000000 0.000000 1.000000
outer loop
vertex 0.750000 0.000000 1.000000
vertex 0.250000 0.000000 1.000000
vertex 0.250000 -1.000000 1.000000
endloop
endfacet
facet normal 0.000000 0.000000 1.000000
outer loop
vertex 0.750000 0.000000 1.000000
vertex 0.250000 -1.000000 1.000000
vertex 0.750000 -1.000000 1.000000
endloop
endfacet
facet normal 0.000000 -1.000000 0.000000
outer loop
vertex 0.750000 -1.000000 0.000000
vertex 0.750000 -1.000000 1.000000
vertex 0.250000 -1.000000 1.000000
endloop
endfacet
facet normal 0.000000 -1.000000 0.000000
outer loop
vertex 0.750000 -1.000000 0.000000
vertex 0.250000 -1.000000 1.000000
vertex 0.250000 -1.000000 0.000000
endloop
endfacet
facet normal -1.000000 0.000000 0.000000
outer loop
vertex 0.250000 -1.000000 0.000000
vertex 0.250000 -1.000000 1.000000
vertex 0.250000 0.000000 1.000000
endloop
endfacet
facet normal -1.000000 0.000000 0.000000
outer loop
vertex 0.250000 -1.000000 0.000000
vertex 0.250000 0.000000 1.000000
vertex 0.250000 0.000000 0.000000
endloop
endfacet
facet normal 0.000000 0.000000 -1.000000
outer loop
vertex 0.250000 0.000000 0.000000
vertex 0.750000 0.000000 0.000000
vertex 0.750000 -1.000000 0.000000
endloop
endfacet
facet normal 0.000000 0.000000 -1.000000
outer loop
vertex 0.250000 0.000000 0.000000
vertex 0.750000 -1.000000 0.000000
vertex 0.250000 -1.000000 0.000000
endloop
endfacet
facet normal 1.000000 0.000000 0.000000
outer loop
vertex 0.750000 0.000000 0.000000
vertex 0.750000 0.000000 1.000000
vertex 0.750000 -1.000000 1.000000
endloop
endfacet
facet normal 1.000000 0.000000 0.000000
outer loop
vertex 0.750000 0.000000 0.000000
vertex 0.750000 -1.000000 1.000000
vertex 0.750000 -1.000000 0.000000
endloop
endfacet
facet normal 0.000000 1.000000 0.000000
outer loop
vertex 0.250000 0.000000 0.000000
vertex 0.250000 0.000000 1.000000
vertex 0.750000 0.000000 1.000000
endloop
endfacet
facet normal 0.000000 1.000000 0.000000
outer loop
vertex 0.250000 0.000000 0.000000
vertex 0.750000 0.000000 1.000000
vertex 0.750000 0.000000 0.000000
endloop
endfacet
facet normal 0.000000 0.000000 1.000000
outer loop
vertex -0.330371 0.000000 0.040894
vertex -0.830371 0.000000 0.040894
vertex -0.830371 -1.000000 0.040894
endloop
endfacet
facet normal 0.000000 0.000000 1.000000
outer loop
vertex -0.330371 0.000000 0.040894
vertex -0.830371 -1.000000 0.040894
vertex -0.330371 -1.000000 0.040894
endloop
endfacet
facet normal 0.000000 -1.000000 0.000000
outer loop
vertex -0.330371 -1.000000 -0.959106
vertex -0.330371 -1.000000 0.040894
vertex -0.830371 -1.000000 0.040894
endloop
endfacet
facet normal 0.000000 -1.000000 0.000000
outer loop
vertex -0.330371 -1.000000 -0.959106
vertex -0.830371 -1.000000 0.040894
vertex -0.830371 -1.000000 -0.959106
endloop
endfacet
facet normal -1.000000 0.000000 0.000000
outer loop
vertex -0.830371 -1.000000 -0.959106
vertex -0.830371 -1.000000 0.040894
vertex -0.830371 0.000000 0.040894
endloop
endfacet
facet normal -1.000000 0.000000 0.000000
outer loop
vertex -0.830371 -1.000000 -0.959106
vertex -0.830371 0.000000 0.040894
vertex -0.830371 0.000000 -0.959106
endloop
endfacet
facet normal 0.000000 0.000000 -1.000000
outer loop
vertex -0.830371 0.000000 -0.959106
vertex -0.330371 0.000000 -0.959106
vertex -0.330371 -1.000000 -0.959106
endloop
endfacet
facet normal 0.000000 0.000000 -1.000000
outer loop
vertex -0.830371 0.000000 -0.959106
vertex -0.330371 -1.000000 -0.959106
vertex -0.830371 -1.000000 -0.959106
endloop
endfacet
facet normal 1.000000 0.000000 0.000000
outer loop
vertex -0.330371 0.000000 -0.959106
vertex -0.330371 0.000000 0.040894
vertex -0.330371 -1.000000 0.040894
endloop
endfacet
facet normal 1.000000 0.000000 0.000000
outer loop
vertex -0.330371 0.000000 -0.959106
vertex -0.330371 -1.000000 0.040894
vertex -0.330371 -1.000000 -0.959106
endloop
endfacet
facet normal 0.000000 1.000000 0.000000
outer loop
vertex -0.830371 0.000000 -0.959106
vertex -0.830371 0.000000 0.040894
vertex -0.330371 0.000000 0.040894
endloop
endfacet
facet normal 0.000000 1.000000 0.000000
outer loop
vertex -0.830371 0.000000 -0.959106
vertex -0.330371 0.000000 0.040894
vertex -0.330371 0.000000 -0.959106
endloop
endfacet
endsolid Exported from Blender-4.4.1
