solid Exported from Blender-4.4.1
facet normal -1.000000 0.000000 0.000000
outer loop
vertex -1.100000 -1.100000 -1.100000
vertex -1.100000 -1.100000 1.100000
vertex -1.100000 0.856941 1.100000
endloop
endfacet
facet normal -1.000000 0.000000 0.000000
outer loop
vertex -1.100000 -1.100000 -1.100000
vertex -1.100000 0.856941 1.100000
vertex -1.100000 0.856941 -1.100000
endloop
endfacet
facet normal 1.000000 0.000000 0.000000
outer loop
vertex 1.100000 -1.100000 1.100000
vertex 1.100000 -1.100000 -1.100000
vertex 1.100000 0.856941 -1.100000
endloop
endfacet
facet normal 1.000000 0.000000 0.000000
outer loop
vertex 1.100000 -1.100000 1.100000
vertex 1.100000 0.856941 -1.100000
vertex 1.100000 0.856941 1.100000
endloop
endfacet
facet normal 0.000000 -1.000000 0.000000
outer loop
vertex 1.100000 -1.100000 -1.100000
vertex 1.100000 -1.100000 1.100000
vertex -1.100000 -1.100000 1.100000
endloop
endfacet
facet normal 0.000000 -1.000000 0.000000
outer loop
vertex 1.100000 -1.100000 -1.100000
vertex -1.100000 -1.100000 1.100000
vertex -1.100000 -1.100000 -1.100000
endloop
endfacet
facet normal 0.000000 0.000000 -1.000000
outer loop
vertex -0.856941 0.856941 -1.100000
vertex 1.100000 0.856941 -1.100000
vertex 1.100000 -1.100000 -1.100000
endloop
endfacet
facet normal 0.000000 0.000000 -1.000000
outer loop
vertex 1.100000 -1.100000 -1.100000
vertex -1.100000 -1.100000 -1.100000
vertex -1.100000 0.856941 -1.100000
endloop
endfacet
facet normal 0.000000 0.000000 -1.000000
outer loop
vertex 1.100000 -1.100000 -1.100000
vertex -1.100000 0.856941 -1.100000
vertex -0.856941 0.856941 -1.100000
endloop
endfacet
facet normal 0.000000 0.000000 1.000000
outer loop
vertex 0.856941 0.856941 1.100000
vertex -1.100000 0.856941 1.100000
vertex -1.100000 -1.100000 1.100000
endloop
endfacet
facet normal 0.000000 0.000000 1.000000
outer loop
vertex -1.100000 -1.100000 1.100000
vertex 1.100000 -1.100000 1.100000
vertex 1.100000 0.856941 1.100000
endloop
endfacet
facet normal 0.000000 0.000000 1.000000
outer loop
vertex 0.856941 0.856941 1.100000
vertex -1.100000 -1.100000 1.100000
vertex 1.100000 0.856941 1.100000
endloop
endfacet
facet normal 1.000000 0.000000 0.000000
outer loop
vertex -1.000000 0.856941 1.000000
vertex -1.000000 -1.000000 1.000000
vertex -1.000000 -1.000000 -1.000000
endloop
endfacet
facet normal 1.000000 0.000000 0.000000
outer loop
vertex -1.000000 0.856941 1.000000
vertex -1.000000 -1.000000 -1.000000
vertex -1.000000 0.856941 -1.000000
endloop
endfacet
facet normal -1.000000 0.000000 0.000000
outer loop
vertex 1.000000 0.856941 -1.000000
vertex 1.000000 -1.000000 -1.000000
vertex 1.000000 -1.000000 1.000000
endloop
endfacet
facet normal -1.000000 0.000000 0.000000
outer loop
vertex 1.000000 0.856941 -1.000000
vertex 1.000000 -1.000000 1.000000
vertex 1.000000 0.856941 1.000000
endloop
endfacet
facet normal 0.000000 1.000000 0.000000
outer loop
vertex 0.607866 -1.000000 -0.709106
vertex 1.000000 -1.000000 -1.000000
vertex -1.000000 -1.000000 -1.000000
endloop
endfacet
facet normal 0.000000 1.000000 0.000000
outer loop
vertex -1.000000 -1.000000 -1.000000
vertex -1.000000 -1.000000 1.000000
vertex 1.000000 -1.000000 1.000000
endloop
endfacet
facet normal 0.000000 1.000000 0.000000
outer loop
vertex 1.000000 -1.000000 1.000000
vertex 0.607866 -1.000000 -0.209106
vertex 0.107866 -1.000000 -0.209106
endloop
endfacet
facet normal 0.000000 1.000000 0.000000
outer loop
vertex 0.107866 -1.000000 -0.709106
vertex 0.607866 -1.000000 -0.709106
vertex -1.000000 -1.000000 -1.000000
endloop
endfacet
facet normal 0.000000 1.000000 0.000000
outer loop
vertex -1.000000 -1.000000 -1.000000
vertex 1.000000 -1.000000 1.000000
vertex 0.107866 -1.000000 -0.209106
endloop
endfacet
facet normal 0.000000 1.000000 0.000000
outer loop
vertex -1.000000 -1.000000 -1.000000
vertex 0.107866 -1.000000 -0.209106
vertex 0.107866 -1.000000 -0.709106
endloop
endfacet
facet normal 0.000000 1.000000 0.000000
outer loop
vertex 0.607866 -1.000000 -0.209106
vertex 1.000000 -1.000000 1.000000
vertex 1.000000 -1.000000 -1.000000
endloop
endfacet
facet normal 0.000000 1.000000 0.000000
outer loop
vertex 0.607866 -1.000000 -0.209106
vertex 1.000000 -1.000000 -1.000000
vertex 0.607866 -1.000000 -0.709106
endloop
endfacet
facet normal 0.000000 0.000000 1.000000
outer loop
vertex -0.856941 0.856941 -1.000000
vertex -1.000000 0.856941 -1.000000
vertex -1.000000 -1.000000 -1.000000
endloop
endfacet
facet normal 0.000000 0.000000 1.000000
outer loop
vertex -1.000000 -1.000000 -1.000000
vertex 1.000000 -1.000000 -1.000000
vertex 1.000000 0.856941 -1.000000
endloop
endfacet
facet normal 0.000000 0.000000 1.000000
outer loop
vertex -0.856941 0.856941 -1.000000
vertex -1.000000 -1.000000 -1.000000
vertex 1.000000 0.856941 -1.000000
endloop
endfacet
facet normal 0.000000 0.000000 -1.000000
outer loop
vertex 0.856941 0.856941 1.000000
vertex 1.000000 0.856941 1.000000
vertex 1.000000 -1.000000 1.000000
endloop
endfacet
facet normal 0.000000 0.000000 -1.000000
outer loop
vertex 1.000000 -1.000000 1.000000
vertex -1.000000 -1.000000 1.000000
vertex -1.000000 0.856941 1.000000
endloop
endfacet
facet normal 0.000000 0.000000 -1.000000
outer loop
vertex 1.000000 -1.000000 1.000000
vertex -1.000000 0.856941 1.000000
vertex 0.856941 0.856941 1.000000
endloop
endfacet
facet normal 0.000000 1.000000 0.000000
outer loop
vertex 1.000000 0.856941 1.000000
vertex 0.856941 0.856941 1.000000
vertex 0.856941 0.856941 1.100000
endloop
endfacet
facet normal 0.000000 1.000000 -0.000001
outer loop
vertex 1.100000 0.856941 -1.100000
vertex -0.856941 0.856941 -1.100000
vertex -0.856941 0.856941 -1.000000
endloop
endfacet
facet normal 0.000000 1.000000 0.000001
outer loop
vertex 1.100000 0.856941 -1.100000
vertex -0.856941 0.856941 -1.000000
vertex 1.000000 0.856941 -1.000000
endloop
endfacet
facet normal 0.000000 1.000000 0.000000
outer loop
vertex 1.000000 0.856941 1.000000
vertex 0.856941 0.856941 1.100000
vertex 1.100000 0.856941 1.100000
endloop
endfacet
facet normal 0.000000 1.000000 0.000000
outer loop
vertex 1.100000 0.856941 -1.100000
vertex 1.000000 0.856941 -1.000000
vertex 1.000000 0.856941 1.000000
endloop
endfacet
facet normal 0.000000 1.000000 0.000000
outer loop
vertex 1.100000 0.856941 1.100000
vertex 1.100000 0.856941 -1.100000
vertex 1.000000 0.856941 1.000000
endloop
endfacet
facet normal 0.000000 1.000000 -0.000000
outer loop
vertex -1.000000 0.856941 -1.000000
vertex -0.856941 0.856941 -1.000000
vertex -0.856941 0.856941 -1.100000
endloop
endfacet
facet normal 0.000000 1.000000 0.000001
outer loop
vertex -1.100000 0.856941 1.100000
vertex 0.856941 0.856941 1.100000
vertex 0.856941 0.856941 1.000000
endloop
endfacet
facet normal 0.000000 1.000000 -0.000001
outer loop
vertex -1.100000 0.856941 1.100000
vertex 0.856941 0.856941 1.000000
vertex -1.000000 0.856941 1.000000
endloop
endfacet
facet normal 0.000000 1.000000 0.000000
outer loop
vertex -1.000000 0.856941 -1.000000
vertex -0.856941 0.856941 -1.100000
vertex -1.100000 0.856941 -1.100000
endloop
endfacet
facet normal 0.000000 1.000000 0.000000
outer loop
vertex -1.100000 0.856941 1.100000
vertex -1.000000 0.856941 1.000000
vertex -1.000000 0.856941 -1.000000
endloop
endfacet
facet normal 0.000000 1.000000 0.000000
outer loop
vertex -1.100000 0.856941 -1.100000
vertex -1.100000 0.856941 1.100000
vertex -1.000000 0.856941 -1.000000
endloop
endfacet
facet normal 0.000000 0.000000 1.000000
outer loop
vertex 0.607866 -1.000000 -0.209106
vertex 0.607866 0.000000 -0.209106
vertex 0.107866 0.000000 -0.209106
endloop
endfacet
facet normal 0.000000 0.000000 1.000000
outer loop
vertex 0.607866 -1.000000 -0.209106
vertex 0.107866 0.000000 -0.209106
vertex 0.107866 -1.000000 -0.209106
endloop
endfacet
facet normal -1.000000 0.000000 0.000000
outer loop
vertex 0.107866 -1.000000 -0.709106
vertex 0.107866 -1.000000 -0.209106
vertex 0.107866 0.000000 -0.209106
endloop
endfacet
facet normal -1.000000 0.000000 0.000000
outer loop
vertex 0.107866 -1.000000 -0.709106
vertex 0.107866 0.000000 -0.209106
vertex 0.107866 0.000000 -0.709106
endloop
endfacet
facet normal 0.000000 0.000000 -1.000000
outer loop
vertex 0.107866 0.000000 -0.709106
vertex 0.607866 0.000000 -0.709106
vertex 0.607866 -1.000000 -0.709106
endloop
endfacet
facet normal 0.000000 0.000000 -1.000000
outer loop
vertex 0.107866 0.000000 -0.709106
vertex 0.607866 -1.000000 -0.709106
vertex 0.107866 -1.000000 -0.709106
endloop
endfacet
facet normal 1.000000 0.000000 0.000000
outer loop
vertex 0.607866 -1.000000 -0.709106
vertex 0.607866 0.000000 -0.709106
vertex 0.607866 0.000000 -0.209106
endloop
endfacet
facet normal 1.000000 0.000000 0.000000
outer loop
vertex 0.607866 -1.000000 -0.709106
vertex 0.607866 0.000000 -0.209106
vertex 0.607866 -1.000000 -0.209106
endloop
endfacet
facet normal 0.000000 1.000000 0.000000
outer loop
vertex 0.107866 0.000000 -0.709106
vertex 0.107866 0.000000 -0.209106
vertex 0.607866 0.000000 -0.209106
endloop
endfacet
facet normal 0.000000 1.000000 0.000000
outer loop
vertex 0.107866 0.000000 -0.709106
vertex 0.607866 0.000000 -0.209106
vertex 0.607866 0.000000 -0.709106
endloop
endfacet
endsolid Exported from Blender-4.4.1
